<svg xmlns="http://www.w3.org/2000/svg" xmlns:xlink="http://www.w3.org/1999/xlink" width="104" height="34" viewBox="0 0 104 34">
  <defs>
    <clipPath id="clip-path">
      <path id="Path_12655" data-name="Path 12655" d="M149.537,338l-4.624-2.67-8.919-5.15c-.5-.286-.988-.113-.988.485v20.981c0,.448.353.641.783.393l9.125-5.269,4.624-2.67,4.445-2.566c.521-.3.471-.715.031-.952S149.537,338,149.537,338Z" transform="translate(-135.006 -330.047)" fill="none"/>
    </clipPath>
    <linearGradient id="linear-gradient" x1="0.5" x2="0.5" y2="1" gradientUnits="objectBoundingBox">
      <stop offset="0" stop-color="#0067a2"/>
      <stop offset="0.403" stop-color="#3d91a8"/>
      <stop offset="0.805" stop-color="#74b7ae"/>
      <stop offset="1" stop-color="#8ac6b1"/>
    </linearGradient>
    <linearGradient id="linear-gradient-2" y1="0.5" x2="1" y2="0.5" gradientUnits="objectBoundingBox">
      <stop offset="0" stop-color="#50b09b"/>
      <stop offset="1" stop-color="#e9e486"/>
    </linearGradient>
    <linearGradient id="linear-gradient-3" x1="0.5" x2="0.5" y2="1" gradientUnits="objectBoundingBox">
      <stop offset="0" stop-color="#dc1b24"/>
      <stop offset="0.228" stop-color="#c1203b"/>
      <stop offset="0.748" stop-color="#8a2b6c"/>
      <stop offset="1" stop-color="#753080"/>
    </linearGradient>
    <linearGradient id="linear-gradient-4" x1="0.5" x2="0.5" y2="1" gradientUnits="objectBoundingBox">
      <stop offset="0" stop-color="#eb7165"/>
      <stop offset="0.003" stop-color="#eb7164"/>
      <stop offset="0.675" stop-color="#f9a85e"/>
      <stop offset="1" stop-color="#ffbe5c"/>
    </linearGradient>
  </defs>
  <g id="icon-play" transform="translate(-1281 -4082)">
    <path id="Path_12650" data-name="Path 12650" d="M200.641,325.479a4.6,4.6,0,0,1-4.6,4.6H101.239a4.6,4.6,0,0,1-4.6-4.6v-24.81a4.6,4.6,0,0,1,4.6-4.595h94.806a4.6,4.6,0,0,1,4.6,4.595Z" transform="translate(1184.359 3785.926)"/>
    <g id="PLAY" transform="translate(1288.692 4088.964)">
      <g id="Group_3054" data-name="Group 3054" clip-path="url(#clip-path)">
        <path id="Path_12651" data-name="Path 12651" d="M135.006,328.285V351l11.455-11.358Z" transform="translate(-135.006 -328.638)" fill="url(#linear-gradient)"/>
        <path id="Path_12652" data-name="Path 12652" d="M149.537,336.263l-4.624-2.67-9.908-5.72v.083l11.455,11.358Z" transform="translate(-135.006 -328.309)" fill="url(#linear-gradient-2)"/>
        <path id="Path_12653" data-name="Path 12653" d="M135.006,396.3v.083l9.908-5.721,4.624-2.669-3.076-3.05Z" transform="translate(-135.006 -373.933)" fill="url(#linear-gradient-3)"/>
        <path id="Path_12654" data-name="Path 12654" d="M195.216,369.721l-3.077,3.051,3.076,3.05,5.284-3.051Z" transform="translate(-180.685 -361.767)" fill="url(#linear-gradient-4)"/>
      </g>
    </g>
    <g id="Group_3055" data-name="Group 3055" transform="translate(1357.733 4094.85)">
      <path id="Path_12656" data-name="Path 12656" d="M482.442,379.779a2.857,2.857,0,0,1-1.178-.238,2.221,2.221,0,0,1-.9-.732H480.3a8.884,8.884,0,0,1,.072,1.1v2.718h-1v-9.572h.814l.138.9h.048a2.326,2.326,0,0,1,.9-.784,2.728,2.728,0,0,1,1.175-.241,2.442,2.442,0,0,1,2.028.9,4.784,4.784,0,0,1-.011,5.049A2.448,2.448,0,0,1,482.442,379.779Zm-.145-6a1.773,1.773,0,0,0-1.464.561,2.886,2.886,0,0,0-.465,1.784v.223a3.3,3.3,0,0,0,.465,1.992,1.765,1.765,0,0,0,1.489.6,1.549,1.549,0,0,0,1.342-.693,3.289,3.289,0,0,0,.485-1.911,3.166,3.166,0,0,0-.485-1.9A1.6,1.6,0,0,0,482.3,373.782Z" transform="translate(-479.368 -370.28)" fill="#f9f9f9"/>
      <path id="Path_12657" data-name="Path 12657" d="M515.945,369.082h-1V359.7h1Z" transform="translate(-507.811 -359.703)" fill="#f9f9f9"/>
      <path id="Path_12658" data-name="Path 12658" d="M530.454,379.707l-.2-.94h-.048a2.771,2.771,0,0,1-.986.841,2.993,2.993,0,0,1-1.226.22,2.207,2.207,0,0,1-1.54-.506,1.846,1.846,0,0,1-.558-1.44q0-2,3.2-2.1l1.122-.036v-.41a1.673,1.673,0,0,0-.335-1.148,1.375,1.375,0,0,0-1.07-.371,4.357,4.357,0,0,0-1.869.506l-.307-.766a4.7,4.7,0,0,1,1.07-.416,4.632,4.632,0,0,1,1.166-.151,2.517,2.517,0,0,1,1.751.524,2.191,2.191,0,0,1,.569,1.682v4.508Zm-2.26-.7a2.033,2.033,0,0,0,1.468-.512,1.9,1.9,0,0,0,.534-1.435v-.6l-1,.042a3.64,3.64,0,0,0-1.721.371,1.118,1.118,0,0,0-.527,1.022,1.03,1.03,0,0,0,.329.826A1.362,1.362,0,0,0,528.194,379Z" transform="translate(-516.568 -370.328)" fill="#f9f9f9"/>
      <path id="Path_12659" data-name="Path 12659" d="M555.222,373.533h1.072l1.447,3.767a14.4,14.4,0,0,1,.591,1.863h.048q.078-.308.328-1.052t1.636-4.578h1.073l-2.839,7.523a3.753,3.753,0,0,1-.986,1.583,2.1,2.1,0,0,1-1.383.467,4.047,4.047,0,0,1-.9-.1v-.8a3.493,3.493,0,0,0,.742.072,1.528,1.528,0,0,0,1.471-1.158l.367-.94Z" transform="translate(-540.014 -370.76)" fill="#f9f9f9"/>
    </g>
    <g id="Group_3057" data-name="Group 3057" transform="translate(1312.119 4094.114)">
      <path id="Path_12660" data-name="Path 12660" d="M381.7,374.611a2.251,2.251,0,0,1-.18,3.827.972.972,0,0,0-.387.678.758.758,0,0,0,.36.594l.5.386a2.406,2.406,0,0,1,1.16,1.935c0,1.3-1.257,2.611-3.634,2.611-2,0-2.971-.953-2.971-1.976a1.988,1.988,0,0,1,1.064-1.686,5.955,5.955,0,0,1,2.639-.636,1.446,1.446,0,0,1-.415-.939,1.247,1.247,0,0,1,.138-.54c-.153.014-.3.028-.443.028a2.185,2.185,0,0,1-2.293-2.169,2.486,2.486,0,0,1,.884-1.852,3.769,3.769,0,0,1,2.474-.76h2.846l-.885.5Zm-.981,6.135a2.138,2.138,0,0,0-.317-.014,5.528,5.528,0,0,0-1.451.222,1.552,1.552,0,0,0-1.189,1.423c0,.981.954,1.686,2.433,1.686,1.326,0,2.031-.637,2.031-1.493C382.222,381.864,381.766,381.492,380.716,380.746Zm.4-2.626a1.4,1.4,0,0,0,.345-1.009c0-.995-.594-2.542-1.74-2.542a1.291,1.291,0,0,0-.968.456,1.6,1.6,0,0,0-.3,1.022c0,.926.539,2.459,1.728,2.459A1.415,1.415,0,0,0,381.117,378.12Z" transform="translate(-351.544 -370.485)" fill="#f9f9f9"/>
      <path id="Path_12661" data-name="Path 12661" d="M345.439,379.743a3.256,3.256,0,0,1-3.366-3.256,3.418,3.418,0,0,1,3.574-3.352,3.225,3.225,0,0,1,3.3,3.256A3.371,3.371,0,0,1,345.439,379.743Zm1.724-1.117a2.5,2.5,0,0,0,.414-1.532c0-1.214-.579-3.532-2.29-3.532a1.922,1.922,0,0,0-1.241.47,2.087,2.087,0,0,0-.635,1.684c0,1.365.676,3.613,2.346,3.613A1.762,1.762,0,0,0,347.163,378.626Z" transform="translate(-323.985 -369.703)" fill="#f9f9f9"/>
      <path id="Path_12662" data-name="Path 12662" d="M308.142,379.743a3.256,3.256,0,0,1-3.366-3.256,3.419,3.419,0,0,1,3.574-3.352,3.225,3.225,0,0,1,3.3,3.256A3.371,3.371,0,0,1,308.142,379.743Zm1.725-1.117a2.5,2.5,0,0,0,.414-1.532c0-1.214-.58-3.532-2.29-3.532a1.922,1.922,0,0,0-1.241.47,2.087,2.087,0,0,0-.635,1.684c0,1.365.676,3.613,2.346,3.613A1.763,1.763,0,0,0,309.867,378.626Z" transform="translate(-294.166 -369.703)" fill="#f9f9f9"/>
      <path id="Path_12663" data-name="Path 12663" d="M261.412,367.074l-1.983.458a14.7,14.7,0,0,1-2.288.235,4.928,4.928,0,0,1-5.284-5.021,5.243,5.243,0,0,1,5.6-5.186,7.983,7.983,0,0,1,2.122.291,5.409,5.409,0,0,1,1.831.86l-1.151,1.1-.485.11.347-.555a3.964,3.964,0,0,0-2.968-1.3,3.831,3.831,0,0,0-3.842,4.092,4.9,4.9,0,0,0,4.91,5.062,4.131,4.131,0,0,0,1.762-.347v-2.233l-2.094.111,1.109-.6h2.941l-.36.347a.324.324,0,0,0-.139.222c-.014.125-.027.528-.027.666Z" transform="translate(-251.856 -357.251)" fill="#f9f9f9"/>
      <path id="Path_12664" data-name="Path 12664" d="M412.367,365.443c-.458-.042-.554-.124-.554-.666v-7.85c0-.03,0-.061.008-.089.056-.485.194-.568.625-.818h-1.984l-1.041.5h1.06v8.564c0,.277-.055.319-.374.735h2.455l.513-.3C412.839,365.484,412.6,365.471,412.367,365.443Z" transform="translate(-377.831 -356.019)" fill="#f9f9f9"/>
      <path id="Path_12665" data-name="Path 12665" d="M432.217,379.272c-.151.083-.3.18-.454.248a3.208,3.208,0,0,1-1.337.262,2.943,2.943,0,0,1-1.832-.538,3.565,3.565,0,0,1-1.4-2.906,3.122,3.122,0,0,1,3.154-3.181,2.677,2.677,0,0,1,1.419.386,2.28,2.28,0,0,1,.963,1.363l-3.236,1.309-1.061.083a3.059,3.059,0,0,0,2.837,2.768,3.559,3.559,0,0,0,1.68-.481Zm-1.294-4.105c.261-.1.4-.179.4-.372a1.367,1.367,0,0,0-1.364-1.185,1.7,1.7,0,0,0-1.584,1.914c0,.234.027.482.042.731Z" transform="translate(-392.037 -369.72)" fill="#f9f9f9"/>
      <g id="Group_3056" data-name="Group 3056" transform="translate(41.099 3.436)">
        <path id="Path_12666" data-name="Path 12666" d="M457.257,373.25v.909h-.11v-.909h-.3v-.094h.712v.094Z" transform="translate(-456.846 -373.156)" fill="#f9f9f9"/>
        <path id="Path_12667" data-name="Path 12667" d="M462.055,374.159v-.917h-.005l-.28.917h-.086l-.283-.917h0v.917h-.1v-1h.172l.256.811h0l.252-.811h.174v1Z" transform="translate(-460.405 -373.156)" fill="#f9f9f9"/>
      </g>
    </g>
    <g id="Group_3058" data-name="Group 3058" transform="translate(1312.143 4088.792)">
      <path id="Path_12668" data-name="Path 12668" d="M254.7,332.907h-.689a4.572,4.572,0,0,0-.2-.806h-1a4.164,4.164,0,0,0-.2.806h-.648q0-.084.5-1.378a10.842,10.842,0,0,0,.5-1.426h.814a11.9,11.9,0,0,0,.456,1.405A12.3,12.3,0,0,1,254.7,332.907Zm-1-1.217a12.184,12.184,0,0,1-.368-1.2h-.034q0,.084-.381,1.2Z" transform="translate(-251.974 -330.038)" fill="#fbfcfc"/>
      <path id="Path_12669" data-name="Path 12669" d="M270.231,332.907H269.7a5.24,5.24,0,0,0-.592-.932,5.135,5.135,0,0,1-.706-1.217h-.035a7.588,7.588,0,0,1,.054.853q0,.532.03,1.3h-.53q.033-.668.032-1.467t-.032-1.337h.64a4.052,4.052,0,0,0,.532.911,5.363,5.363,0,0,1,.65,1.148h.032a8.171,8.171,0,0,1-.052-.862q0-.583-.03-1.2h.539q-.03.534-.03,1.337T270.231,332.907Z" transform="translate(-264.723 -330.038)" fill="#fbfcfc"/>
      <path id="Path_12670" data-name="Path 12670" d="M285.569,331.356a1.588,1.588,0,0,1-.392,1.068,1.369,1.369,0,0,1-1.1.457q-.319,0-.879-.026.028-.65.028-1.467,0-.784-.028-1.337h.377q.093,0,.276-.007l.239-.006a1.452,1.452,0,0,1,1.128.388A1.34,1.34,0,0,1,285.569,331.356Zm-.588.093a1.038,1.038,0,0,0-.241-.7.914.914,0,0,0-.737-.283,2.28,2.28,0,0,0-.254.019q.022.431.022.9,0,.515.021,1.021a1.43,1.43,0,0,0,.28.028.814.814,0,0,0,.686-.288A1.11,1.11,0,0,0,284.981,331.449Z" transform="translate(-276.939 -329.986)" fill="#fbfcfc"/>
      <path id="Path_12671" data-name="Path 12671" d="M300.321,332.855h-.638a4.229,4.229,0,0,0-.383-.941.5.5,0,0,0-.431-.179l-.239,0q0,.554.019,1.118h-.6q.028-.65.028-1.467,0-.784-.028-1.337h.373q.065,0,.27-.007t.38-.006q.988,0,.989.676a.759.759,0,0,1-.564.747v.032a.673.673,0,0,1,.381.339A7.5,7.5,0,0,1,300.321,332.855Zm-.808-1.981q0-.429-.551-.429a1.88,1.88,0,0,0-.358.03q.024.334.024.87.118,0,.2,0Q299.513,331.35,299.513,330.874Z" transform="translate(-288.813 -329.986)" fill="#fbfcfc"/>
      <path id="Path_12672" data-name="Path 12672" d="M313.839,331.2a1.547,1.547,0,0,1-.4,1.1,1.314,1.314,0,0,1-1,.435,1.265,1.265,0,0,1-.952-.4,1.406,1.406,0,0,1-.383-1.015,1.546,1.546,0,0,1,.4-1.1,1.314,1.314,0,0,1,1-.435,1.267,1.267,0,0,1,.952.4A1.405,1.405,0,0,1,313.839,331.2Zm-.594.062a1.111,1.111,0,0,0-.231-.73.709.709,0,0,0-.569-.28.657.657,0,0,0-.534.282,1.126,1.126,0,0,0-.22.713,1.109,1.109,0,0,0,.232.729.709.709,0,0,0,.568.281.656.656,0,0,0,.534-.283A1.127,1.127,0,0,0,313.244,331.257Z" transform="translate(-299.243 -329.78)" fill="#fbfcfc"/>
      <path id="Path_12673" data-name="Path 12673" d="M328.414,332.907H327.8q.028-.668.028-1.467T327.8,330.1h.609q-.028.543-.028,1.337Q328.387,332.253,328.414,332.907Z" transform="translate(-312.602 -330.038)" fill="#fbfcfc"/>
      <path id="Path_12674" data-name="Path 12674" d="M336.968,331.356a1.588,1.588,0,0,1-.392,1.068,1.369,1.369,0,0,1-1.1.457q-.319,0-.879-.026.028-.65.028-1.467,0-.784-.028-1.337h.377q.093,0,.276-.007c.122,0,.2-.006.239-.006a1.452,1.452,0,0,1,1.128.388A1.341,1.341,0,0,1,336.968,331.356Zm-.588.093a1.039,1.039,0,0,0-.241-.7.915.915,0,0,0-.737-.283,2.276,2.276,0,0,0-.254.019q.022.431.022.9,0,.515.021,1.021a1.43,1.43,0,0,0,.28.028.814.814,0,0,0,.686-.288A1.11,1.11,0,0,0,336.38,331.449Z" transform="translate(-318.033 -329.986)" fill="#fbfcfc"/>
      <path id="Path_12675" data-name="Path 12675" d="M356.181,332.907h-.689a4.543,4.543,0,0,0-.2-.806h-1a4.157,4.157,0,0,0-.2.806h-.648q0-.084.5-1.378a10.818,10.818,0,0,0,.5-1.426h.814a11.882,11.882,0,0,0,.456,1.405A12.357,12.357,0,0,1,356.181,332.907Zm-1-1.217a12.23,12.23,0,0,1-.368-1.2h-.034q0,.084-.381,1.2Z" transform="translate(-333.105 -330.038)" fill="#fbfcfc"/>
      <path id="Path_12676" data-name="Path 12676" d="M371.442,330.785a.84.84,0,0,1-.383.76,1.7,1.7,0,0,1-.938.245q-.1,0-.144,0,0,.4.024,1.068H369.4q.028-.622.028-1.467,0-.775-.028-1.337h.375q.079,0,.306-.007t.392-.006a1.233,1.233,0,0,1,.691.185A.626.626,0,0,1,371.442,330.785Zm-.556.118q0-.461-.612-.461a1.723,1.723,0,0,0-.323.032q.024.407.024.922.054,0,.125,0Q370.886,331.4,370.886,330.9Z" transform="translate(-345.854 -329.986)" fill="#fbfcfc"/>
      <path id="Path_12677" data-name="Path 12677" d="M384.326,330.785a.84.84,0,0,1-.382.76,1.7,1.7,0,0,1-.938.245c-.068,0-.115,0-.144,0q0,.4.024,1.068h-.605q.028-.622.028-1.467,0-.775-.028-1.337h.375q.08,0,.306-.007t.392-.006a1.233,1.233,0,0,1,.691.185A.626.626,0,0,1,384.326,330.785Zm-.556.118q0-.461-.612-.461a1.723,1.723,0,0,0-.323.032q.024.407.024.922c.036,0,.078,0,.125,0Q383.77,331.4,383.77,330.9Z" transform="translate(-356.155 -329.986)" fill="#fbfcfc"/>
      <path id="Path_12678" data-name="Path 12678" d="M402.617,331.2a1.546,1.546,0,0,1-.4,1.1,1.314,1.314,0,0,1-1,.435,1.265,1.265,0,0,1-.952-.4,1.407,1.407,0,0,1-.383-1.015,1.547,1.547,0,0,1,.4-1.1,1.314,1.314,0,0,1,1-.435,1.267,1.267,0,0,1,.952.4A1.406,1.406,0,0,1,402.617,331.2Zm-.594.062a1.11,1.11,0,0,0-.231-.73.709.709,0,0,0-.568-.28.657.657,0,0,0-.534.282,1.126,1.126,0,0,0-.22.713,1.109,1.109,0,0,0,.232.729.709.709,0,0,0,.567.281.655.655,0,0,0,.534-.283A1.126,1.126,0,0,0,402.022,331.257Z" transform="translate(-370.222 -329.78)" fill="#fbfcfc"/>
      <path id="Path_12679" data-name="Path 12679" d="M418.895,332.907h-.532a5.241,5.241,0,0,0-.592-.932,5.14,5.14,0,0,1-.707-1.217h-.034a7.628,7.628,0,0,1,.054.853q0,.532.03,1.3h-.53q.032-.668.032-1.467t-.032-1.337h.64a4.059,4.059,0,0,0,.532.911,5.365,5.365,0,0,1,.65,1.148h.032a8.127,8.127,0,0,1-.052-.862q0-.583-.03-1.2h.538q-.03.534-.03,1.337T418.895,332.907Z" transform="translate(-383.581 -330.038)" fill="#fbfcfc"/>
    </g>
  </g>
</svg>
