<svg xmlns="http://www.w3.org/2000/svg" width="102" height="34" viewBox="0 0 102 34">
  <g id="icon-ios" transform="translate(-1275 -6371)">
    <g id="Group_3066" data-name="Group 3066" transform="translate(-6 2146)">
      <path id="Path_12680" data-name="Path 12680" d="M198.641,965.23a4.552,4.552,0,0,1-4.508,4.6H101.15a4.553,4.553,0,0,1-4.509-4.6V940.42a4.553,4.553,0,0,1,4.509-4.595h92.983a4.552,4.552,0,0,1,4.508,4.595Z" transform="translate(1184.359 3289.175)"/>
      <g id="Group_3061" data-name="Group 3061" transform="translate(1287.842 4230.264)">
        <path id="Path_12681" data-name="Path 12681" d="M151.394,1001.37a16.523,16.523,0,0,1-1.494,2.789c-.97,1.477-2.337,3.316-4.031,3.332-1.506.014-1.892-.98-3.935-.969s-2.469.986-3.975.972c-1.694-.016-2.99-1.676-3.96-3.153-2.713-4.129-3-8.976-1.323-11.552a6,6,0,0,1,4.828-2.9c1.8,0,2.924.985,4.409.985,1.44,0,2.318-.986,4.394-.986a5.859,5.859,0,0,1,4.417,2.332A5.054,5.054,0,0,0,151.394,1001.37Z" transform="translate(-131.637 -984.503)" fill="#fff"/>
        <g id="Group_3060" data-name="Group 3060" transform="translate(9.496)">
          <path id="Path_12682" data-name="Path 12682" d="M183.806,966.088a5.04,5.04,0,0,0,1.119-3.733,5.445,5.445,0,0,0-3.515,1.891,4.679,4.679,0,0,0-1.149,3.641A4.6,4.6,0,0,0,183.806,966.088Z" transform="translate(-180.207 -962.355)" fill="#fff"/>
        </g>
      </g>
      <g id="Group_3064" data-name="Group 3064" transform="translate(1311.977 4230.313)">
        <g id="Group_3062" data-name="Group 3062" transform="translate(0 7.993)">
          <path id="Path_12683" data-name="Path 12683" d="M258.968,1004.42l-3.886,11.438h1.78l1.16-3.512h3.762l1.193,3.512h1.829l-3.9-11.438Zm.922,1.881c.131.51.273,1.041.455,1.614l1.047,3.033h-2.98l1.033-3.053C259.6,1007.4,259.751,1006.865,259.89,1006.3Z" transform="translate(-255.082 -1004.238)" fill="#fff"/>
          <path id="Path_12684" data-name="Path 12684" d="M312.417,1019.586a3.238,3.238,0,0,0-2.751,1.32l-.069-1.138h-1.583l.009.146c.047.709.066,1.489.066,2.609v8.816h1.731v-4.114a3.038,3.038,0,0,0,2.366,1.016,3.568,3.568,0,0,0,2.622-1.115,4.728,4.728,0,0,0,1.158-3.329,4.6,4.6,0,0,0-1.005-3.039A3.293,3.293,0,0,0,312.417,1019.586Zm-.431,1.433c1.543,0,2.233,1.429,2.233,2.845,0,1.826-.881,2.961-2.3,2.961a2.1,2.1,0,0,1-2.039-1.606,2.209,2.209,0,0,1-.061-.56v-1.392a2.609,2.609,0,0,1,.055-.427c.009-.047.018-.095.025-.14A2.191,2.191,0,0,1,311.986,1021.019Z" transform="translate(-297.665 -1016.439)" fill="#fff"/>
          <path id="Path_12685" data-name="Path 12685" d="M358,1019.586a3.24,3.24,0,0,0-2.751,1.32l-.069-1.138H353.6l.009.146c.047.709.067,1.489.067,2.609v8.816H355.4v-4.114a3.037,3.037,0,0,0,2.365,1.016,3.573,3.573,0,0,0,2.624-1.115,4.734,4.734,0,0,0,1.157-3.329,4.6,4.6,0,0,0-1.006-3.039A3.291,3.291,0,0,0,358,1019.586Zm-.431,1.433c1.542,0,2.233,1.429,2.233,2.845,0,1.826-.882,2.961-2.3,2.961a2.1,2.1,0,0,1-2.039-1.606,2.209,2.209,0,0,1-.061-.56v-1.392a2.57,2.57,0,0,1,.055-.429c.009-.047.017-.093.025-.139A2.19,2.19,0,0,1,357.568,1021.019Z" transform="translate(-334.335 -1016.439)" fill="#fff"/>
          <path id="Path_12686" data-name="Path 12686" d="M416.265,1008.517c-1.615-.626-2.133-1.117-2.133-2.026,0-.765.608-1.537,1.967-1.537a3.932,3.932,0,0,1,2.032.51l.147.091.488-1.444-.1-.056a5.015,5.015,0,0,0-2.52-.565c-2.207,0-3.748,1.3-3.748,3.168,0,1.5.965,2.555,3.037,3.309,1.469.549,2.015,1.111,2.015,2.075,0,1.091-.843,1.768-2.2,1.768a4.736,4.736,0,0,1-2.494-.707l-.15-.1-.465,1.478.085.056a5.927,5.927,0,0,0,2.925.752c2.974,0,4.029-1.814,4.029-3.367C419.184,1010.323,418.339,1009.335,416.265,1008.517Z" transform="translate(-381.437 -1003.488)" fill="#fff"/>
          <path id="Path_12687" data-name="Path 12687" d="M451.985,1010.439l-1.7.533v1.438h-1.242v1.383h1.242v4.237a3.238,3.238,0,0,0,.6,2.2,2.219,2.219,0,0,0,1.674.657,4.08,4.08,0,0,0,1.338-.206l.1-.034-.083-1.386-.166.051a2.6,2.6,0,0,1-.8.093c-.671,0-.957-.424-.957-1.421v-4.187h2.088v-1.383h-2.088Z" transform="translate(-411.123 -1009.08)" fill="#fff"/>
          <path id="Path_12688" data-name="Path 12688" d="M479.774,1019.586a4.076,4.076,0,0,0-4.112,4.394,3.949,3.949,0,0,0,3.98,4.261h.016a4.08,4.08,0,0,0,4.112-4.41,4.372,4.372,0,0,0-1.1-3.061A3.851,3.851,0,0,0,479.774,1019.586Zm-.05,1.366c1.557,0,2.266,1.518,2.266,2.929,0,1.735-.967,2.994-2.3,2.994h-.017c-1.312,0-2.265-1.238-2.265-2.944C477.409,1022.449,478.125,1020.952,479.724,1020.952Z" transform="translate(-432.536 -1016.439)" fill="#fff"/>
          <path id="Path_12689" data-name="Path 12689" d="M526.519,1019.666l-.1-.026a1.671,1.671,0,0,0-.43-.054,2.469,2.469,0,0,0-2.17,1.393l-.051-1.211h-1.553l.01.146c.046.685.065,1.454.065,2.492l-.016,5.654H524v-4.411a4.467,4.467,0,0,1,.048-.671,1.913,1.913,0,0,1,1.821-1.744,4.433,4.433,0,0,1,.464.029l.185.019Z" transform="translate(-469.984 -1016.439)" fill="#fff"/>
          <path id="Path_12690" data-name="Path 12690" d="M548.044,1019.5c-2.3,0-3.913,1.841-3.913,4.477a3.87,3.87,0,0,0,4.079,4.179,6.638,6.638,0,0,0,2.74-.526l.1-.047-.333-1.29-.144.058a5.364,5.364,0,0,1-2.168.388,2.406,2.406,0,0,1-2.592-2.509l5.586.017.023-.11a3.851,3.851,0,0,0,.052-.722C551.477,1021.61,550.578,1019.5,548.044,1019.5Zm-.115,1.317a1.707,1.707,0,0,1,1.27.485,2.463,2.463,0,0,1,.6,1.611h-3.947A2.209,2.209,0,0,1,547.929,1020.819Z" transform="translate(-487.619 -1016.371)" fill="#fff"/>
        </g>
        <g id="Group_3063" data-name="Group 3063" transform="translate(0 0)">
          <path id="Path_12691" data-name="Path 12691" d="M255.082,963.993a12.621,12.621,0,0,1,1.66-.112,3.7,3.7,0,0,1,2.437.667,2.369,2.369,0,0,1,.857,1.952,2.74,2.74,0,0,1-.866,2.1,4.016,4.016,0,0,1-2.669.779,11.993,11.993,0,0,1-1.419-.064Zm.786,4.8a5.585,5.585,0,0,0,.785.032c1.66.008,2.561-.835,2.561-2.3.009-1.293-.794-2.088-2.436-2.088a4.927,4.927,0,0,0-.91.072Z" transform="translate(-255.082 -963.632)" fill="#fff"/>
          <path id="Path_12692" data-name="Path 12692" d="M286.134,975.5a1.951,1.951,0,0,1-2.07-2,2.005,2.005,0,0,1,2.142-2.064,1.936,1.936,0,0,1,2.079,1.992,2.013,2.013,0,0,1-2.141,2.072Zm.027-.53a1.383,1.383,0,0,0,1.312-1.518,1.321,1.321,0,1,0-1.321,1.518Z" transform="translate(-278.398 -969.713)" fill="#fff"/>
          <path id="Path_12693" data-name="Path 12693" d="M308.7,971.891l.58,1.968c.116.434.232.843.312,1.245h.027c.1-.394.241-.811.384-1.237l.705-1.976h.661l.669,1.943c.16.458.285.875.384,1.269h.027a10.758,10.758,0,0,1,.33-1.261l.616-1.952h.777l-1.392,3.887h-.714l-.66-1.855a12.734,12.734,0,0,1-.384-1.285h-.018a10.678,10.678,0,0,1-.393,1.293l-.7,1.847H309.2l-1.3-3.887Z" transform="translate(-297.573 -970.076)" fill="#fff"/>
          <path id="Path_12694" data-name="Path 12694" d="M343.864,972.58c0-.41-.009-.731-.036-1.052h.7l.044.635h.018a1.636,1.636,0,0,1,1.428-.723,1.478,1.478,0,0,1,1.526,1.654v2.321h-.785v-2.241c0-.627-.259-1.156-1-1.156a1.12,1.12,0,0,0-1.053.723.952.952,0,0,0-.054.329v2.345h-.785Z" transform="translate(-326.477 -969.713)" fill="#fff"/>
          <path id="Path_12695" data-name="Path 12695" d="M369.346,962.607h.785v5.7h-.785Z" transform="translate(-347.006 -962.607)" fill="#fff"/>
          <path id="Path_12696" data-name="Path 12696" d="M380.5,975.5a1.951,1.951,0,0,1-2.07-2,2,2,0,0,1,2.142-2.064,1.936,1.936,0,0,1,2.079,1.992,2.013,2.013,0,0,1-2.142,2.072Zm.026-.53a1.383,1.383,0,0,0,1.312-1.518,1.321,1.321,0,1,0-1.321,1.518Z" transform="translate(-354.316 -969.713)" fill="#fff"/>
          <path id="Path_12697" data-name="Path 12697" d="M406.739,974.484a5.863,5.863,0,0,0,.063.931H406.1l-.071-.49H406a1.661,1.661,0,0,1-1.321.578,1.178,1.178,0,0,1-1.321-1.117c0-.94.928-1.454,2.6-1.446v-.08c0-.321-.1-.908-.981-.9a2.255,2.255,0,0,0-1.133.289l-.179-.474a3.043,3.043,0,0,1,1.428-.337,1.445,1.445,0,0,1,1.651,1.59Zm-.767-1.052c-.857-.016-1.83.12-1.83.875a.657.657,0,0,0,.732.675,1.089,1.089,0,0,0,1.062-.651.649.649,0,0,0,.036-.225Z" transform="translate(-374.368 -969.713)" fill="#fff"/>
          <path id="Path_12698" data-name="Path 12698" d="M429.539,962.607v4.7c0,.345.01.739.036,1h-.7l-.036-.675h-.018a1.616,1.616,0,0,1-1.464.763,1.854,1.854,0,0,1-1.857-1.976,1.938,1.938,0,0,1,1.937-2.088,1.486,1.486,0,0,1,1.3.586h.018v-2.313Zm-.785,3.4a1.177,1.177,0,0,0-.036-.305,1.135,1.135,0,0,0-1.133-.811,1.33,1.33,0,0,0-1.294,1.494,1.29,1.29,0,0,0,1.276,1.445,1.169,1.169,0,0,0,1.151-.843,1.1,1.1,0,0,0,.036-.305Z" transform="translate(-392.178 -962.607)" fill="#fff"/>
          <path id="Path_12699" data-name="Path 12699" d="M462.99,975.5a1.951,1.951,0,0,1-2.07-2,2.006,2.006,0,0,1,2.142-2.064,1.936,1.936,0,0,1,2.08,1.992A2.013,2.013,0,0,1,463,975.5Zm.027-.53a1.383,1.383,0,0,0,1.312-1.518,1.32,1.32,0,1,0-1.321,1.518Z" transform="translate(-420.676 -969.713)" fill="#fff"/>
          <path id="Path_12700" data-name="Path 12700" d="M487.434,972.58c0-.41-.009-.731-.036-1.052h.7l.045.635h.018a1.636,1.636,0,0,1,1.428-.723,1.479,1.479,0,0,1,1.526,1.654v2.321h-.786v-2.241c0-.627-.258-1.156-1-1.156a1.122,1.122,0,0,0-1.053.723.957.957,0,0,0-.053.329v2.345h-.785Z" transform="translate(-441.978 -969.713)" fill="#fff"/>
          <path id="Path_12701" data-name="Path 12701" d="M521.521,967.127v.931h1.124v.538h-1.124v2.1c0,.482.152.755.589.755a1.621,1.621,0,0,0,.455-.048l.036.538a2.359,2.359,0,0,1-.7.1,1.19,1.19,0,0,1-.848-.3,1.411,1.411,0,0,1-.3-1.02V968.6h-.669v-.538h.669v-.715Z" transform="translate(-468.273 -966.243)" fill="#fff"/>
          <path id="Path_12702" data-name="Path 12702" d="M537.7,962.607h.785v2.426h.018a1.333,1.333,0,0,1,.563-.5,1.658,1.658,0,0,1,.8-.2A1.477,1.477,0,0,1,541.382,966v2.313H540.6v-2.233c0-.635-.259-1.156-1-1.156a1.129,1.129,0,0,0-1.053.707.778.778,0,0,0-.054.337v2.345H537.7Z" transform="translate(-482.449 -962.607)" fill="#fff"/>
          <path id="Path_12703" data-name="Path 12703" d="M562.2,973.559a1.317,1.317,0,0,0,1.473,1.35,3.275,3.275,0,0,0,1.2-.193l.143.5a3.862,3.862,0,0,1-1.446.249,1.916,1.916,0,0,1-2.124-1.96,1.979,1.979,0,0,1,2.035-2.1,1.7,1.7,0,0,1,1.776,1.832,1.636,1.636,0,0,1-.026.337Zm2.294-.506a1.043,1.043,0,0,0-1.08-1.149,1.222,1.222,0,0,0-1.2,1.149Z" transform="translate(-501.546 -969.679)" fill="#fff"/>
        </g>
      </g>
    </g>
  </g>
</svg>
